<svg id="Calque_1" data-name="Calque 1" xmlns="http://www.w3.org/2000/svg" viewBox="0 0 721.76 127.27"><defs><style>.cls-1{fill:#0400b5;}.cls-2{fill:#260089;}</style></defs><title>SKYLINE_SVG</title><polygon class="cls-1" points="0 127.27 0 29.01 3.95 29.01 3.95 25.83 6.79 26.93 10.58 26.93 10.58 28.91 23.2 28.91 23.2 38.81 26.36 36.61 30.78 36.61 30.78 43.64 37.73 43.64 37.73 32.87 41.83 32.87 41.83 28.91 53.83 28.91 53.83 38.15 63.62 38.15 63.62 19.46 84.14 19.46 84.14 28.91 88.08 26.16 101.5 26.16 101.5 39.91 105.92 39.91 105.92 37.05 109.39 37.05 109.39 22.63 114.45 22.63 114.45 19.46 120.44 19.46 120.44 22.63 125.5 22.63 125.5 33.09 132.76 36.39 132.76 45.4 136.86 45.4 136.86 28.03 150.12 28.03 150.12 38.15 154.86 38.15 154.86 30.67 163.7 30.67 163.7 27.37 168.74 27.37 168.74 30.67 182.33 30.67 182.33 38.81 191.48 38.81 191.48 52.88 194.64 52.88 194.64 40.78 202.22 40.78 206.64 43.86 206.64 4.07 212.48 0 217.69 3.63 217.69 18.36 224.32 27.81 236.31 27.81 236.31 39.2 244.21 56.17 248.94 56.17 248.94 31.11 252.73 31.11 252.73 28.03 264.73 28.03 264.73 39.2 270.41 39.2 270.41 46.06 275.94 42.21 275.94 29.35 291.56 29.35 291.56 39.2 295.04 39.2 295.04 30.45 303.88 30.45 303.88 27.37 309.88 27.37 309.88 24.34 319.03 25.61 319.03 27.81 322.19 27.81 322.19 39.2 330.4 39.2 330.4 53.32 333.55 53.32 333.55 43.2 337.48 43.2 337.48 127.27 0 127.27"/><polygon class="cls-1" points="311.54 127.27 311.54 29.01 315.48 29.01 315.48 25.83 318.32 26.93 322.11 26.93 322.11 28.91 334.74 28.91 334.74 38.81 337.9 36.61 342.32 36.61 342.32 43.64 349.26 43.64 349.26 32.87 353.37 32.87 353.37 28.91 365.37 28.91 365.37 38.15 375.15 38.15 375.15 19.46 395.68 19.46 395.68 28.91 399.62 26.16 413.04 26.16 413.04 39.91 417.36 67.56 413.53 51.89 417.01 51.89 420.83 50.29 425.88 50.29 425.88 47.12 431.88 47.12 431.88 50.29 436.93 50.29 436.93 60.75 444.19 64.04 444.3 45.4 448.4 45.4 448.3 55.69 461.56 55.69 461.56 65.8 466.29 65.8 466.29 58.33 475.13 58.33 475.13 55.03 480.17 55.03 480.17 58.33 493.76 58.33 493.76 66.46 502.92 66.46 503.02 52.88 506.18 52.88 506.22 49.25 513.8 49.25 518.17 43.86 518.17 18.96 524.01 14.89 536.77 24.11 536.77 24.11 537.28 28.63 547.85 34.65 547.85 44.82 555.74 56.17 560.48 56.17 560.48 31.11 564.27 31.11 564.27 28.03 576.26 28.03 576.26 39.2 581.95 39.2 581.95 46.06 587.47 42.21 587.47 29.35 603.1 29.35 603.1 39.2 606.57 39.2 606.57 30.45 615.41 30.45 615.41 27.37 621.41 27.37 621.41 24.34 630.57 25.61 630.57 27.81 633.72 27.81 633.72 39.2 641.93 39.2 641.93 53.32 645.09 53.32 645.09 43.2 649.01 43.2 649.01 127.27 311.54 127.27"/><polyline class="cls-1" points="721.76 28.03 721.76 39.2 716.08 39.2 716.08 46.06 710.55 42.21 710.55 29.35 694.92 29.35 694.92 39.2 691.45 39.2 691.45 30.45 682.61 30.45 682.61 27.37 676.61 27.37 676.61 24.34 667.46 25.61 667.46 27.81 664.3 27.81 664.3 39.2 656.09 39.2 656.09 53.32 652.93 53.32 652.93 43.2 647.01 43.2 647.01 127.27 721.76 127.27"/><path class="cls-2" d="M774,289.14" transform="translate(0 -274.24)"/><polygon class="cls-1" points="419.87 45.55 419.87 38.67 421.03 38.05 421.03 37.69 421.26 37.69 421.26 37.1 421.66 37.02 421.66 36.79 425.88 35.44 425.88 35.1 429.2 33.95 435.5 34.96 461.57 30.97 465.92 11.89 467.06 13.13 468.47 20.76 470.91 15.14 471.45 15.14 471.27 14.58 471.68 14.76 471.68 14.53 472.24 14.87 472.9 14.78 472.79 14.04 473.46 14.54 473.46 14.02 474.23 14.49 475.07 13.99 475.99 15.48 476.45 15.77 476.35 15.95 476.74 16.18 476.62 16.43 477.26 16.97 477.12 17.18 477.98 18.46 478.29 18.68 478.05 18.75 478.59 19.07 478.36 19.25 479.13 19.88 478.93 20.11 479.62 20.74 479.4 20.86 479.87 21.12 479.74 21.35 480.08 21.92 480.55 22.1 480.32 22.27 480.8 22.54 480.69 22.7 480.98 22.8 480.76 22.89 481.34 23.5 481.57 23.68 481.36 23.9 481.93 24.28 481.75 24.49 482.18 24.69 482.02 24.94 482.58 25.26 482.47 25.44 482.74 25.57 482.63 25.75 483.64 27.31 484.01 27.6 483.8 27.76 484.36 28.15 484.19 28.37 484.57 28.53 484.44 28.72 484.97 29.14 484.73 29.24 485.14 29.45 484.93 29.64 485.5 30.47 485.5 30.79 485.81 30.79 486.38 32.53 487.23 32.61 487.23 28.87 501.48 29.57 509.17 34.19 511.27 36.59 511.27 127.27 419.87 127.27 419.87 45.55"/></svg>