<?xml version="1.0" encoding="utf-8"?>
<!-- Generator: Adobe Illustrator 27.0.0, SVG Export Plug-In . SVG Version: 6.00 Build 0)  -->
<svg version="1.1" id="Calque_1" xmlns="http://www.w3.org/2000/svg" xmlns:xlink="http://www.w3.org/1999/xlink" x="0px" y="0px"
	 viewBox="0 0 721.8 127.3" style="enable-background:new 0 0 721.8 127.3;" xml:space="preserve">
<style type="text/css">
	.st0{fill:#0400B5;}
	.st1{fill:#260089;}
	.st2{fill:#FECC10;}
</style>
<polygon class="st0" points="0,127.3 0,29 4,29 4,25.8 6.8,26.9 10.6,26.9 10.6,28.9 23.2,28.9 23.2,38.8 26.4,36.6 30.8,36.6 
	30.8,43.6 37.7,43.6 37.7,32.9 41.8,32.9 41.8,28.9 53.8,28.9 53.8,38.2 63.6,38.2 63.6,19.5 84.1,19.5 84.1,28.9 88.1,26.2 
	101.5,26.2 101.5,39.9 105.9,39.9 105.9,37 109.4,37 109.4,22.6 114.4,22.6 114.4,19.5 120.4,19.5 120.4,22.6 125.5,22.6 
	125.5,33.1 132.8,36.4 132.8,45.4 136.9,45.4 136.9,28 150.1,28 150.1,38.2 154.9,38.2 154.9,30.7 163.7,30.7 163.7,27.4 
	168.7,27.4 168.7,30.7 182.3,30.7 182.3,38.8 191.5,38.8 191.5,52.9 194.6,52.9 194.6,40.8 202.2,40.8 206.6,43.9 206.6,4.1 
	212.5,0 217.7,3.6 217.7,18.4 224.3,27.8 236.3,27.8 236.3,39.2 244.2,56.2 248.9,56.2 248.9,31.1 252.7,31.1 252.7,28 264.7,28 
	264.7,39.2 270.4,39.2 270.4,46.1 275.9,42.2 275.9,29.4 291.6,29.4 291.6,39.2 295,39.2 295,30.5 303.9,30.5 303.9,27.4 
	309.9,27.4 309.9,24.3 319,25.6 319,27.8 322.2,27.8 322.2,39.2 330.4,39.2 330.4,53.3 333.5,53.3 333.5,43.2 337.5,43.2 
	337.5,127.3 "/>
<polygon class="st0" points="311.5,127.3 311.5,29 315.5,29 315.5,25.8 318.3,26.9 322.1,26.9 322.1,28.9 334.7,28.9 334.7,38.8 
	337.9,36.6 342.3,36.6 342.3,43.6 349.3,43.6 349.3,32.9 353.4,32.9 353.4,28.9 365.4,28.9 365.4,38.2 375.1,38.2 375.1,19.5 
	395.7,19.5 395.7,28.9 399.6,26.2 413,26.2 413,39.9 417.4,67.6 413.5,51.9 417,51.9 420.8,50.3 425.9,50.3 425.9,47.1 431.9,47.1 
	431.9,50.3 436.9,50.3 436.9,60.8 444.2,64 444.3,45.4 448.4,45.4 448.3,55.7 461.6,55.7 461.6,65.8 466.3,65.8 466.3,58.3 
	475.1,58.3 475.1,55 480.2,55 480.2,58.3 493.8,58.3 493.8,66.5 502.9,66.5 503,52.9 506.2,52.9 506.2,49.2 513.8,49.2 518.2,43.9 
	518.2,19 524,14.9 536.8,24.1 536.8,24.1 537.3,28.6 547.8,34.7 547.8,44.8 555.7,56.2 560.5,56.2 560.5,31.1 564.3,31.1 564.3,28 
	576.3,28 576.3,39.2 582,39.2 582,46.1 587.5,42.2 587.5,29.4 603.1,29.4 603.1,39.2 606.6,39.2 606.6,30.5 615.4,30.5 615.4,27.4 
	621.4,27.4 621.4,24.3 630.6,25.6 630.6,27.8 633.7,27.8 633.7,39.2 641.9,39.2 641.9,53.3 645.1,53.3 645.1,43.2 649,43.2 
	649,127.3 "/>
<polyline class="st0" points="721.8,28 721.8,39.2 716.1,39.2 716.1,46.1 710.5,42.2 710.5,29.4 694.9,29.4 694.9,39.2 691.5,39.2 
	691.5,30.5 682.6,30.5 682.6,27.4 676.6,27.4 676.6,24.3 667.5,25.6 667.5,27.8 664.3,27.8 664.3,39.2 656.1,39.2 656.1,53.3 
	652.9,53.3 652.9,43.2 647,43.2 647,127.3 721.8,127.3 "/>
<path class="st1" d="M774,14.9"/>
<polygon class="st0" points="419.9,45.5 419.9,38.7 421,38 421,37.7 421.3,37.7 421.3,37.1 421.7,37 421.7,36.8 425.9,35.4 
	425.9,35.1 429.2,34 435.5,35 461.6,31 465.9,11.9 467.1,13.1 468.5,20.8 470.9,15.1 471.5,15.1 471.3,14.6 471.7,14.8 471.7,14.5 
	472.2,14.9 472.9,14.8 472.8,14 473.5,14.5 473.5,14 474.2,14.5 475.1,14 476,15.5 476.5,15.8 476.4,15.9 476.7,16.2 476.6,16.4 
	477.3,17 477.1,17.2 478,18.5 478.3,18.7 478,18.8 478.6,19.1 478.4,19.2 479.1,19.9 478.9,20.1 479.6,20.7 479.4,20.9 479.9,21.1 
	479.7,21.4 480.1,21.9 480.5,22.1 480.3,22.3 480.8,22.5 480.7,22.7 481,22.8 480.8,22.9 481.3,23.5 481.6,23.7 481.4,23.9 
	481.9,24.3 481.8,24.5 482.2,24.7 482,24.9 482.6,25.3 482.5,25.4 482.7,25.6 482.6,25.8 483.6,27.3 484,27.6 483.8,27.8 
	484.4,28.1 484.2,28.4 484.6,28.5 484.4,28.7 485,29.1 484.7,29.2 485.1,29.5 484.9,29.6 485.5,30.5 485.5,30.8 485.8,30.8 
	486.4,32.5 487.2,32.6 487.2,28.9 501.5,29.6 509.2,34.2 511.3,36.6 511.3,127.3 419.9,127.3 "/>
<rect x="629.9" y="44.7" class="st2" width="6.7" height="6.7"/>
<rect x="105.2" y="54.9" class="st2" width="8.7" height="8.7"/>
</svg>
